<svg xmlns="http://www.w3.org/2000/svg" width="80.052" height="75.807" viewBox="0 0 80.052 75.807"><defs><style>.a{fill:#dee0e0;}.b{fill:#1dadf2;}</style></defs><g transform="translate(256.667 41.631)"><path class="a" d="M-216.642,4.316a2,2,0,0,1-.966-.249l-38.023-20.951a2,2,0,0,1-1.035-1.752,2,2,0,0,1,1.034-1.752l38.024-20.995a2,2,0,0,1,1.935,0l38.024,20.995a2,2,0,0,1,1.034,1.752,2,2,0,0,1-1.036,1.752L-215.677,4.068A2,2,0,0,1-216.642,4.316Zm-33.88-22.954L-216.642.031l33.881-18.668-33.88-18.707Z"/><path class="a" d="M-239.666,7.205a2,2,0,0,1-2-2V-3.717a2,2,0,0,1,2-2,2,2,0,0,1,2,2V5.2A2,2,0,0,1-239.666,7.205Z" transform="translate(-2.992 -7.164)"/><path class="a" d="M-174.666,7.205a2,2,0,0,1-2-2V-3.717a2,2,0,0,1,2-2,2,2,0,0,1,2,2V5.2A2,2,0,0,1-174.666,7.205Z" transform="translate(-15.959 -7.164)"/><path class="a" d="M-213.649,27.9c-15.449,0-28.018-8.706-28.018-19.408a2,2,0,0,1,2-2,2,2,0,0,1,2,2c0,8.494,10.773,15.406,24.015,15.406s24.015-6.912,24.015-15.406a2,2,0,0,1,2-2,2,2,0,0,1,2,2C-185.632,19.193-198.2,27.9-213.649,27.9Z" transform="translate(-2.992 -9.6)"/><path class="b" d="M-230.415-1.639A2,2,0,0,1-232.183-2.7a2,2,0,0,1,.828-2.707l18.5-9.836a2,2,0,0,1,2.707.828,2,2,0,0,1-.828,2.707l-18.505,9.836A1.989,1.989,0,0,1-230.415-1.639Z" transform="translate(-4.838 -5.217)"/><path class="b" d="M-230.791,32.415a2,2,0,0,1-2-2V.194a2,2,0,0,1,2-2,2,2,0,0,1,2,2v30.22A2,2,0,0,1-230.791,32.415Z" transform="translate(-4.763 -7.945)"/><path class="b" d="M-227.711,49.7h-8.205a2,2,0,0,1-2-2V42.3a6.111,6.111,0,0,1,6.1-6.1,6.111,6.111,0,0,1,6.1,6.1v5.4A2,2,0,0,1-227.711,49.7Zm-6.2-4h4.2V42.3a2.1,2.1,0,0,0-2.1-2.1,2.1,2.1,0,0,0-2.1,2.1Z" transform="translate(-3.74 -15.525)"/></g></svg>