<svg xmlns="http://www.w3.org/2000/svg" width="59.25" height="59.25" viewBox="0 0 59.25 59.25"><defs><style>.a{fill:#fff;}</style></defs><path class="a" d="M966.375,390.657h0a29.625,29.625,0,0,1-29.625-29.625h0a29.625,29.625,0,0,1,29.625-29.625h0A29.625,29.625,0,0,1,996,361.032h0A29.625,29.625,0,0,1,966.375,390.657Z" transform="translate(-936.75 -331.407)"/><g transform="translate(21.988 13.167)"><path d="M974.8,361.884h-4.59v16.44h-6.847v-16.44H960.13v-5.793h3.235v-3.762a8.141,8.141,0,0,1,.527-2.972,5.774,5.774,0,0,1,2.069-2.746,7.223,7.223,0,0,1,4.289-1.2l5.079.038v5.643h-3.687a1.458,1.458,0,0,0-.94.3,1.583,1.583,0,0,0-.489,1.279v3.423H975.4Z" transform="translate(-960.13 -345.407)"/></g></svg>