<svg xmlns="http://www.w3.org/2000/svg" width="59.25" height="59.25" viewBox="0 0 59.25 59.25"><defs><style>.a{fill:#fff;}</style></defs><g transform="translate(0)"><path class="a" d="M822.874,678.323h0A29.625,29.625,0,0,1,793.249,648.7h0a29.625,29.625,0,0,1,29.625-29.625h0A29.625,29.625,0,0,1,852.5,648.7h0A29.625,29.625,0,0,1,822.874,678.323Z" transform="translate(-793.249 -619.073)"/><g transform="translate(13.261 13.167)"><path d="M837.632,633.073a2.39,2.39,0,0,1,1.73.7,2.256,2.256,0,0,1,.715,1.674v28.214a2.192,2.192,0,0,1-.715,1.655,2.381,2.381,0,0,1-1.693.678H809.757a2.373,2.373,0,0,1-1.693-.678,2.189,2.189,0,0,1-.715-1.655V635.442a2.253,2.253,0,0,1,.715-1.674,2.389,2.389,0,0,1,1.731-.7h27.838Zm-20.8,9.949a2.634,2.634,0,0,0,0-3.687,2.734,2.734,0,0,0-1.994-.733,2.8,2.8,0,0,0-2.013.733,2.438,2.438,0,0,0-.771,1.843,2.465,2.465,0,0,0,.752,1.843,2.68,2.68,0,0,0,1.956.734h.038A2.778,2.778,0,0,0,816.829,643.022Zm.451,2.766h-4.928v14.859h4.928Zm17.794,6.32a7.207,7.207,0,0,0-1.618-5.04,5.843,5.843,0,0,0-7.035-.791,5.827,5.827,0,0,0-1.467,1.619v-2.107h-4.928q.037.865,0,7.938v6.921h4.928v-8.314a3.694,3.694,0,0,1,.15-1.2,3,3,0,0,1,.9-1.24,2.5,2.5,0,0,1,1.655-.565,2.168,2.168,0,0,1,1.919.94,4.387,4.387,0,0,1,.564,2.409v7.974h4.928Z" transform="translate(-807.349 -633.073)"/></g></g></svg>