<svg xmlns="http://www.w3.org/2000/svg" width="55.59" height="77.43" viewBox="0 0 55.59 77.43"><defs><style>.a{fill:#dee0e0;}.b{fill:#1dadf2;}</style></defs><g transform="translate(127.433 5.157)"><g transform="translate(-127.433 -5.157)"><path class="a" d="M-77.451,72.273h-44.372a5.615,5.615,0,0,1-5.61-5.61V.453a5.616,5.616,0,0,1,5.61-5.61h31.081a1.651,1.651,0,0,1,1.652,1.652,1.65,1.65,0,0,1-1.652,1.652h-31.081A2.308,2.308,0,0,0-124.129.453v66.21a2.308,2.308,0,0,0,2.306,2.306h44.372a2.308,2.308,0,0,0,2.3-2.306V13.744a1.651,1.651,0,0,1,1.652-1.652,1.651,1.651,0,0,1,1.652,1.652V66.663A5.615,5.615,0,0,1-77.451,72.273Z" transform="translate(127.433 5.157)"/><g transform="translate(35.039 0.001)"><path class="a" d="M-87.322,15.4h-13.291a5.616,5.616,0,0,1-5.608-5.61V-3.505A1.648,1.648,0,0,1-105.2-5.03a1.651,1.651,0,0,1,1.8.357l17.248,17.249a1.652,1.652,0,0,1,.358,1.8A1.653,1.653,0,0,1-87.322,15.4ZM-102.918.484v9.3a2.309,2.309,0,0,0,2.3,2.306h9.3Z" transform="translate(106.222 5.156)"/></g></g><g transform="translate(-120.355 18.596)"><path class="b" d="M-111.051,18.987H-121.8a1.331,1.331,0,0,0-1.345,1.345V31.084a1.331,1.331,0,0,0,1.345,1.345h10.752a1.331,1.331,0,0,0,1.345-1.345V20.332A1.331,1.331,0,0,0-111.051,18.987Zm-1.343,10.754h-8.066V21.675h8.066Z" transform="translate(123.148 -2.856)"/><path class="b" d="M-111.051,9.222H-121.8a1.331,1.331,0,0,0-1.345,1.345V21.321a1.331,1.331,0,0,0,1.345,1.343h10.752a1.331,1.331,0,0,0,1.345-1.343V10.567A1.331,1.331,0,0,0-111.051,9.222Zm-1.343,10.754h-8.066V11.911h8.066Z" transform="translate(123.148 -9.222)"/><path class="b" d="M-111.051,28.752H-121.8a1.331,1.331,0,0,0-1.345,1.343V40.849a1.331,1.331,0,0,0,1.345,1.345h10.752a1.331,1.331,0,0,0,1.345-1.345V30.1A1.331,1.331,0,0,0-111.051,28.752ZM-112.394,39.5h-8.066V31.44h8.066Z" transform="translate(123.148 3.51)"/><path class="b" d="M-90.111,10.85H-112.04a1.331,1.331,0,0,0-1.343,1.343,1.331,1.331,0,0,0,1.343,1.345h21.929a1.332,1.332,0,0,0,1.345-1.345A1.332,1.332,0,0,0-90.111,10.85Z" transform="translate(129.514 -8.161)"/><path class="b" d="M-90.111,20.614H-112.04a1.331,1.331,0,0,0-1.343,1.345A1.331,1.331,0,0,0-112.04,23.3h21.929a1.332,1.332,0,0,0,1.345-1.345A1.332,1.332,0,0,0-90.111,20.614Z" transform="translate(129.514 -1.795)"/><path class="b" d="M-90.111,30.379H-112.04a1.331,1.331,0,0,0-1.343,1.345,1.331,1.331,0,0,0,1.343,1.345h21.929a1.332,1.332,0,0,0,1.345-1.345A1.332,1.332,0,0,0-90.111,30.379Z" transform="translate(129.514 4.57)"/><path class="b" d="M-112.04,16.793h16.131a1.331,1.331,0,0,0,1.345-1.345A1.331,1.331,0,0,0-95.909,14.1H-112.04a1.331,1.331,0,0,0-1.343,1.343A1.331,1.331,0,0,0-112.04,16.793Z" transform="translate(129.514 -6.039)"/><path class="b" d="M-112.04,26.558h16.131a1.331,1.331,0,0,0,1.345-1.345,1.331,1.331,0,0,0-1.345-1.345H-112.04a1.331,1.331,0,0,0-1.343,1.345A1.331,1.331,0,0,0-112.04,26.558Z" transform="translate(129.514 0.327)"/><path class="b" d="M-95.909,33.634H-112.04a1.331,1.331,0,0,0-1.343,1.345,1.331,1.331,0,0,0,1.343,1.343h16.131a1.331,1.331,0,0,0,1.345-1.343A1.331,1.331,0,0,0-95.909,33.634Z" transform="translate(129.514 6.692)"/></g></g></svg>