<svg xmlns="http://www.w3.org/2000/svg" width="81.808" height="87.484" viewBox="0 0 81.808 87.484"><defs><style>.a{fill:#dee0e0;}.b{fill:#1dadf2;}</style></defs><path class="a" d="M608.8,612.436l-.012-.013c-.016-.02-.037-.037-.054-.057a1.891,1.891,0,0,0-.192-.188c-.012-.01-.021-.022-.033-.032s-.034-.021-.05-.033a1.833,1.833,0,0,0-.21-.136c-.029-.017-.058-.034-.088-.049a1.836,1.836,0,0,0-.3-.118c-.016,0-.033-.006-.05-.01a1.835,1.835,0,0,0-.273-.049c-.036,0-.073,0-.109-.006a1.782,1.782,0,0,0-.223,0c-.038,0-.076.007-.113.012a1.854,1.854,0,0,0-.223.046c-.034.01-.068.016-.1.027-.011,0-.023.005-.034.009a1.828,1.828,0,0,0-.266.117l-.025.016a1.881,1.881,0,0,0-.252.171c-.027.021-.052.046-.078.069a1.9,1.9,0,0,0-.172.176c-.014.016-.031.028-.044.045L591,631.05a1.861,1.861,0,1,0,2.907,2.326l11.576-14.47v11.446a1.861,1.861,0,1,0,3.723,0V618.906l11.576,14.47a1.862,1.862,0,0,0,2.907-2.326Z" transform="translate(-566.444 -546.591)"/><path class="a" d="M553.428,471.118h27.92a1.861,1.861,0,0,0,1.862-1.862v-3.723a1.861,1.861,0,0,1,3.723,0v3.723a1.861,1.861,0,0,0,1.861,1.862h27.928a1.861,1.861,0,1,0,0-3.723H590.655v-1.862a5.584,5.584,0,1,0-11.168,0V467.4H553.428a1.861,1.861,0,1,0,0,3.723Z" transform="translate(-544.167 -459.95)"/><path class="a" d="M535.9,487.357a1.861,1.861,0,0,0-1.549,2.129v0a1.862,1.862,0,0,0,1.835,1.573,1.731,1.731,0,0,0,.292-.024,1.861,1.861,0,1,0-.579-3.676Z" transform="translate(-534.327 -475.58)"/><path class="a" d="M718.4,487.362a1.862,1.862,0,0,0-1.8,2.934,1.85,1.85,0,0,0,1.214.745,2.022,2.022,0,0,0,.294.022,1.862,1.862,0,0,0,.29-3.7Z" transform="translate(-638.164 -475.584)"/><path class="a" d="M616.1,494.643H549.092a1.862,1.862,0,0,0-1.862,1.862v42.811a1.862,1.862,0,0,0,1.862,1.861h27.92a1.861,1.861,0,0,0,0-3.723H550.953V498.366h63.286v3.723h-24.2a1.861,1.861,0,1,0,0,3.723h24.2v31.643H588.18a1.861,1.861,0,0,0,0,3.723H616.1a1.862,1.862,0,0,0,1.861-1.861V496.5A1.862,1.862,0,0,0,616.1,494.643Z" transform="translate(-541.692 -479.752)"/><path class="b" d="M627.151,598.108a1.861,1.861,0,1,0-1.862-1.861A1.862,1.862,0,0,0,627.151,598.108Z" transform="translate(-586.246 -536.683)"/><path class="b" d="M589.485,536.141c.17.016.343.026.517.026a5.6,5.6,0,0,0,1-.094l5.859,5.858a5.593,5.593,0,1,0,9.8,2.546l11.262-11.262v1.09a1.861,1.861,0,1,0,3.723,0v-5.583a1.844,1.844,0,0,0-.036-.367c-.01-.049-.029-.095-.042-.143a1.918,1.918,0,0,0-.064-.2c-.023-.055-.055-.106-.083-.158s-.054-.11-.088-.162a1.863,1.863,0,0,0-.2-.239c-.013-.014-.022-.03-.036-.044s-.028-.021-.041-.034a1.927,1.927,0,0,0-.242-.2c-.05-.033-.1-.057-.158-.085s-.106-.062-.163-.086a1.71,1.71,0,0,0-.2-.062c-.049-.015-.1-.034-.148-.044a1.883,1.883,0,0,0-.366-.037H614.2a1.861,1.861,0,1,0,0,3.723h1.09l-10.578,10.578a5.52,5.52,0,0,0-4.538-1.177l-5.859-5.859a5.584,5.584,0,1,0-8.245.418l-4.535,6.047a5.613,5.613,0,1,0,2.5,2.87l5.283-7.045A1.859,1.859,0,0,0,589.485,536.141Zm13.546,9.333a1.861,1.861,0,1,1-1.861-1.862A1.863,1.863,0,0,1,603.031,545.474ZM590,528.722a1.861,1.861,0,1,1-1.861,1.861A1.864,1.864,0,0,1,590,528.722Zm-11.168,18.614a1.862,1.862,0,1,1,1.861-1.862A1.864,1.864,0,0,1,578.834,547.336Z" transform="translate(-556.544 -497.079)"/></svg>