<svg xmlns="http://www.w3.org/2000/svg" width="87.377" height="87.469" viewBox="0 0 87.377 87.469"><defs><style>.a{fill:#1dadf2;}.b{fill:#dee0e0;}</style></defs><g transform="translate(0 0)"><path class="a" d="M701.073,313.548c0-3.859-6.8-5.6-13.6-5.6s-13.6,1.746-13.6,5.6v16.079c0,3.859,6.8,5.6,13.6,5.6s13.6-1.746,13.6-5.6Zm-3.675-.092c-.735.735-4.043,2.021-9.923,2.021-5.972,0-9.28-1.378-9.923-1.93.735-.735,4.043-2.021,9.923-2.021C693.448,311.527,696.755,312.905,697.4,313.457ZM677.46,317.5a27.222,27.222,0,0,0,10.015,1.654,29.775,29.775,0,0,0,10.015-1.562v3.859c-.46.643-3.859,2.113-10.015,2.113-6.248,0-9.647-1.562-10.015-2.021h0Zm10.015,14.057c-6.248,0-9.647-1.562-10.015-2.021v-4.043a27.557,27.557,0,0,0,10.015,1.654,29.763,29.763,0,0,0,10.015-1.562v3.859C696.939,330.087,693.448,331.557,687.475,331.557Z" transform="translate(-643.741 -277.808)"/><path class="b" d="M693.369,254.944v7.9a1.837,1.837,0,1,0,3.675,0v-7.9a7.332,7.332,0,1,0-9.188-7.074A7.305,7.305,0,0,0,693.369,254.944Zm1.838-10.75a3.675,3.675,0,1,1-3.675,3.675A3.686,3.686,0,0,1,695.206,244.194Z" transform="translate(-651.472 -240.519)"/><path class="b" d="M637.534,279.179a7.113,7.113,0,0,0,3.675-1.011l5.6,5.6a1.777,1.777,0,0,0,2.573,0,1.777,1.777,0,0,0,0-2.573l-5.6-5.6a7.368,7.368,0,1,0-6.248,3.584Zm0-11.026a3.675,3.675,0,1,1-3.675,3.675A3.686,3.686,0,0,1,637.534,268.153Z" transform="translate(-619.526 -253.82)"/><path class="b" d="M620.877,331.11h7.9a1.838,1.838,0,1,0,0-3.675h-7.9a7.332,7.332,0,1,0-7.075,9.188A7.305,7.305,0,0,0,620.877,331.11Zm-6.983,1.837a3.675,3.675,0,1,1,3.675-3.675A3.686,3.686,0,0,1,613.894,332.948Z" transform="translate(-606.452 -285.538)"/><path class="b" d="M647.133,368.739l-5.6,5.6a7.334,7.334,0,1,0,3.675,6.34,7.112,7.112,0,0,0-1.011-3.675l5.6-5.6a1.777,1.777,0,0,0,0-2.573A1.811,1.811,0,0,0,647.133,368.739Zm-9.371,15.527a3.675,3.675,0,1,1,3.675-3.675A3.628,3.628,0,0,1,637.762,384.266Z" transform="translate(-619.753 -311.131)"/><path class="b" d="M697.044,391.892v-7.9a1.837,1.837,0,1,0-3.675,0v7.9a7.332,7.332,0,1,0,9.188,7.074A7.3,7.3,0,0,0,697.044,391.892Zm-1.837,10.75a3.675,3.675,0,1,1,3.675-3.675A3.686,3.686,0,0,1,695.206,402.642Z" transform="translate(-651.472 -318.849)"/><path class="b" d="M746.511,373.114a7.111,7.111,0,0,0-3.675,1.011l-5.6-5.6a1.819,1.819,0,1,0-2.573,2.573l5.6,5.6a7.341,7.341,0,1,0,13.69,3.675A7.623,7.623,0,0,0,746.511,373.114Zm0,11.025a3.675,3.675,0,1,1,3.675-3.675A3.686,3.686,0,0,1,746.511,384.139Z" transform="translate(-677.051 -311.004)"/><path class="b" d="M764.695,321.922a7.386,7.386,0,0,0-7.074,5.513h-7.9a1.838,1.838,0,0,0,0,3.675h7.9a7.332,7.332,0,1,0,7.074-9.188Zm0,11.026a3.675,3.675,0,1,1,3.675-3.675A3.628,3.628,0,0,1,764.695,332.948Z" transform="translate(-684.668 -281.282)"/><path class="b" d="M735.626,284a1.815,1.815,0,0,0,1.286-.552l5.6-5.6a7.334,7.334,0,1,0-3.675-6.34,7.113,7.113,0,0,0,1.011,3.675l-5.6,5.6a1.777,1.777,0,0,0,0,2.573A1.917,1.917,0,0,0,735.626,284Zm10.658-16.079a3.675,3.675,0,1,1-3.675,3.675A3.628,3.628,0,0,1,746.284,267.926Z" transform="translate(-676.824 -253.593)"/></g></svg>